# xmcd CD database file
#
# Track frame offsets:
#	180
#	16862
#	40432
#	58449
#	98731
#	115417
#	134540
#	155299
#	178724
#	200515
#	220587
#	238862
#	254851
#	270393
#	292072
#	305423
#
# Disc length: 4283 seconds
#
# Revision: 0
# Processed by: cddbd v1.4PL0 Copyright (c) Steve Scherf et al.
# Submitted via: CDex 1.50Beta5
#
DISCID=f610b910
DTITLE=Various Artist - Blue Wave 10th Anniversary Sampler
DYEAR=1995
DGENRE=Blues
TTITLE0=Built For Comfort Blues Band - Can't Stand To See Her Cryin'
TTITLE1=Downchild Blues Band - Wednesday Night
TTITLE2=The Kingsnakes - Motherless World
TTITLE3=Backbone Slip - I'm Gonna Move To The Outskirts Of Town
TTITLE4=King Biscuit Boy - Achin' Head
TTITLE5=Kim Lembo - My Tears Came Rolling Down
TTITLE6=Cub Koda - Let's Get Funky
TTITLE7=Downchild Blues Band - I'm Mixed Up
TTITLE8=Jumpin' Joe Whiting - What Will It Take
TTITLE9=The Kingsnakes - Hardlife Boogie
TTITLE10=Cold Shot - Gotta Jones
TTITLE11=King Biscuit Boy - Now I'm Good
TTITLE12=Kim Lembo - Mama Lion
TTITLE13=Built For Comfort Blues Band - Cold Hearted Woman
TTITLE14=Cub Koda - Olds 98 Blues
TTITLE15=Backbone Slip - I Can't Always Be (What You Expect Of Me)
EXTD=YEAR: 1995
EXTT0=
EXTT1=
EXTT2=
EXTT3=
EXTT4=
EXTT5=
EXTT6=
EXTT7=
EXTT8=
EXTT9=
EXTT10=
EXTT11=
EXTT12=
EXTT13=
EXTT14=
EXTT15=
PLAYORDER=
